<?xml version="1.0" encoding="utf-8"?>
<!-- Generator: Adobe Illustrator 16.0.3, SVG Export Plug-In . SVG Version: 6.00 Build 0)  -->
<!DOCTYPE svg PUBLIC "-//W3C//DTD SVG 1.1//EN" "http://www.w3.org/Graphics/SVG/1.1/DTD/svg11.dtd">
<svg version="1.1" id="Capa_1" xmlns="http://www.w3.org/2000/svg" xmlns:xlink="http://www.w3.org/1999/xlink" x="0px" y="0px"
	 width="512px" height="512px" viewBox="0 0 512 512" enable-background="new 0 0 512 512" xml:space="preserve">
<path opacity="0.4" fill="#FFFFFF" d="M180.832,257.8c0-51.57,37.882-94.291,87.339-101.854c-5.12-0.783-10.364-1.188-15.704-1.188
	c-56.91,0-103.043,46.132-103.043,103.042s46.133,103.043,103.043,103.043c5.339,0,10.583-0.405,15.704-1.188
	C218.715,352.091,180.832,309.37,180.832,257.8L180.832,257.8z"/>
<circle fill="#FFFFFF" cx="79.092" cy="41.125" r="29.344"/>
<circle fill="#FFFFFF" cx="71.071" cy="427.921" r="19.382"/>
<circle fill="#FFFFFF" cx="426.933" cy="459.76" r="28.548"/>
<path fill="#FFFFFF" d="M511.859,234.607c-1.859-24.197-21.903-41.959-44.759-39.666c-16.621,1.669-30.156,13.493-35.577,29.12
	l-22.104,1.955l-17.012-4.766c-3.782-1.066-6.741-3.962-7.998-7.682c-4.544-13.546-11.127-26.162-19.379-37.489
	c-0.793-1.099-1.004-2.515-0.528-3.782l6.794-18.28l20.921-22.633c8.475,0.634,17.149-2.578,23.193-9.541
	c9.341-10.757,8.96-27.188-0.877-37.489c-11.222-11.739-29.818-11.443-40.681,0.296c-6.012,6.498-8.326,15.099-7.068,23.214
	l-20.921,22.633l-17.921,8.306c-1.215,0.57-2.631,0.476-3.783-0.212c-20.952-12.658-45.487-19.949-71.692-19.949h-0.021
	c-1.405,0-2.716-0.718-3.466-1.912L237.537,98.47l-4.66-23.14c13.25-8.56,20.509-24.018,17.138-39.793
	c-4.501-21.08-26.289-34.721-48.658-30.484c-22.379,4.237-36.866,24.768-32.365,45.848c3.191,14.92,15.047,26.109,29.649,29.871
	l4.935,24.535l-3.91,23.753c-15.522,6.393-29.649,15.511-41.769,26.765l-16.653-2.97l-16.525-12.468
	c-0.676-8.115-4.882-15.892-12.278-20.858c-11.612-7.798-27.557-5.621-36.654,4.998c-10.566,12.331-8.411,30.812,4.353,40.448
	c7.523,5.674,16.98,6.952,25.328,4.279l14.909,11.253l5.494,11.231c1.247,2.558,1.279,5.537,0.095,8.126
	c-8.115,17.646-12.658,37.268-12.658,57.935c0,3.805,0.158,7.565,0.465,11.296c0.274,3.36-1.194,6.636-3.952,8.591l-18.544,13.218
	l-25.391,7.988c-10.08-9.584-24.979-13.482-39.159-8.791c-20.255,6.699-31.445,28.878-24.82,49.154
	c6.625,20.287,28.371,31.509,48.785,25.084c15.194-4.775,25.38-17.994,27.061-32.871l23.922-7.523l21.851,0.211
	c4.015,0.032,7.756,2.113,9.837,5.548c8.379,13.82,19.093,26.067,31.593,36.211c3.17,2.557,4.712,6.625,4.152,10.661l-3.085,21.883
	l-15.712,32.607c-8.453,1.966-15.923,7.841-19.526,16.632c-5.283,12.891-0.032,27.979,12.098,34.815
	c14.169,7.968,31.9,2.24,38.853-12.172c3.867-8.041,3.54-17.012-0.116-24.44l15.617-32.396l13.947-14.719
	c3.656-3.856,9.034-5.505,14.244-4.47c8.749,1.723,17.793,2.642,27.039,2.642c0.032,0,0.053,0,0.084,0
	c5.368-0.01,10.376,2.685,13.208,7.238l10.556,16.97l6.837,27.155c-9.024,8.865-12.944,22.433-8.676,35.556
	c5.484,16.812,23.183,26.87,40.438,23.024c19.125-4.259,30.854-23.415,26.099-42.297c-3.148-12.489-12.722-21.672-24.303-24.905
	l-6.805-26.997l1.374-21.914c0.264-4.259,2.684-8.115,6.456-10.123c11.211-5.98,21.523-13.45,30.652-22.146
	c2.705-2.589,6.403-3.867,10.123-3.413l10.819,1.32l17.191,11.528c1.131,8.062,5.759,15.606,13.42,20.149
	c12.024,7.144,27.821,4.09,36.316-7.026c9.868-12.901,6.688-31.233-6.583-40.142c-7.83-5.251-17.35-6.001-25.528-2.874
	l-15.512-10.407l-5.578-9.975c-1.723-3.064-1.944-6.73-0.677-10.017c3.729-9.7,6.414-19.907,7.893-30.505
	c0.55-3.931,2.959-7.354,6.541-9.077l15.659-7.555l20.742-1.828c7.312,15.628,23.14,25.634,40.638,23.88
	C496.707,280.285,513.729,258.803,511.859,234.607z M252.467,360.843c-56.909,0-103.043-46.134-103.043-103.043
	c0-56.908,46.134-103.042,103.043-103.042c56.909,0,103.042,46.134,103.042,103.042C355.51,314.709,309.376,360.843,252.467,360.843
	z"/>
<path opacity="0.6" fill="#FFFFFF" d="M260.474,155.065c1.131,0.086,2.254,0.198,3.373,0.321
	C262.728,155.263,261.604,155.152,260.474,155.065z"/>
<path opacity="0.6" fill="#FFFFFF" d="M264.766,155.491c1.121,0.133,2.238,0.278,3.349,0.447
	C267.004,155.769,265.887,155.624,264.766,155.491z"/>
<path opacity="0.6" fill="#FFFFFF" d="M268.169,155.947c-49.456,7.563-87.337,50.283-87.337,101.853
	c0,51.569,37.882,94.29,87.337,101.854c49.456-7.562,87.341-50.284,87.341-101.854C355.51,206.23,317.625,163.508,268.169,155.947z
	 M194.223,229.383c0-14.699,11.916-26.615,26.615-26.615s26.616,11.916,26.616,26.615c0,14.7-11.917,26.616-26.616,26.616
	S194.223,244.083,194.223,229.383z M242.203,330.169c-10.005,0-18.116-8.11-18.116-18.116c0-10.005,8.111-18.115,18.116-18.115
	c10.005,0,18.115,8.11,18.115,18.115C260.318,322.058,252.208,330.169,242.203,330.169z M299.088,273.012
	c-8.401,0-15.213-6.811-15.213-15.213c0-8.401,6.812-15.212,15.213-15.212S314.3,249.398,314.3,257.8
	C314.3,266.202,307.489,273.012,299.088,273.012z"/>
<path opacity="0.6" fill="#FFFFFF" d="M256.901,154.859c1.154,0.049,2.306,0.11,3.451,0.197
	C259.207,154.969,258.056,154.907,256.901,154.859z"/>
<path opacity="0.6" fill="#FFFFFF" d="M252.467,154.758c1.186,0,2.365,0.027,3.541,0.067
	C254.832,154.785,253.653,154.758,252.467,154.758z"/>
<path opacity="0.6" fill="#FFFFFF" d="M256.008,360.775c-1.176,0.04-2.355,0.067-3.541,0.067
	C253.653,360.843,254.832,360.815,256.008,360.775z"/>
<path opacity="0.6" fill="#FFFFFF" d="M268.114,359.662c-1.11,0.169-2.228,0.313-3.349,0.447
	C265.887,359.975,267.004,359.831,268.114,359.662z"/>
<path opacity="0.6" fill="#FFFFFF" d="M263.847,360.214c-1.119,0.123-2.242,0.234-3.373,0.321
	C261.604,360.448,262.728,360.337,263.847,360.214z"/>
<path opacity="0.6" fill="#FFFFFF" d="M260.353,360.545c-1.146,0.087-2.297,0.147-3.451,0.197
	C258.056,360.692,259.207,360.632,260.353,360.545z"/>
</svg>
